<svg width="48" height="48" viewBox="0 0 48 48" fill="none" xmlns="http://www.w3.org/2000/svg">
<path d="M22 10C22 7.79086 20.2091 6 18 6C15.7909 6 14 7.79086 14 10V16C14 18.2091 15.7909 20 18 20C20.2091 20 22 18.2091 22 16V10Z" fill="#1ABCFE"/>
<path d="M22 24C22 21.7909 20.2091 20 18 20C15.7909 20 14 21.7909 14 24V30C14 32.2091 15.7909 34 18 34C20.2091 34 22 32.2091 22 30V24Z" fill="#0ACF83"/>
<path d="M34 10C34 7.79086 32.2091 6 30 6C27.7909 6 26 7.79086 26 10V16C26 18.2091 27.7909 20 30 20C32.2091 20 34 18.2091 34 16V10Z" fill="#FF7262"/>
<path d="M30 31C32.2091 31 34 29.2091 34 27C34 24.7909 32.2091 23 30 23C27.7909 23 26 24.7909 26 27C26 29.2091 27.7909 31 30 31Z" fill="#F24E1E"/>
<path d="M18 44C20.2091 44 22 42.2091 22 40C22 37.7909 20.2091 36 18 36C15.7909 36 14 37.7909 14 40C14 42.2091 15.7909 44 18 44Z" fill="#A259FF"/>
</svg>
