<svg width="16" height="16" viewBox="0 0 16 16" fill="none" xmlns="http://www.w3.org/2000/svg">
<path d="M9.99994 14.6666V11.9999C10.0927 11.1648 9.85323 10.3267 9.33328 9.66659C11.3333 9.66659 13.3333 8.33325 13.3333 5.99992C13.3866 5.16659 13.1533 4.34659 12.6666 3.66659C12.8533 2.89992 12.8533 2.09992 12.6666 1.33325C12.6666 1.33325 11.9999 1.33325 10.6666 2.33325C8.90661 1.99992 7.09328 1.99992 5.33328 2.33325C3.99994 1.33325 3.33328 1.33325 3.33328 1.33325C3.13328 2.09992 3.13328 2.89992 3.33328 3.66659C2.84786 4.34384 2.61226 5.16844 2.66661 5.99992C2.66661 8.33325 4.66661 9.66659 6.66661 9.66659C6.40661 9.99325 6.21328 10.3666 6.09994 10.7666C5.98661 11.1666 5.95328 11.5866 5.99994 11.9999V14.6666" stroke="#475467" stroke-width="1.33333" stroke-linecap="round" stroke-linejoin="round"/>
<path d="M6.00004 12.0001C2.99337 13.3334 2.66671 10.6667 1.33337 10.6667" stroke="#475467" stroke-width="1.33333" stroke-linecap="round" stroke-linejoin="round"/>
</svg>
